<?xml version="1.0" standalone="no"?>
<!DOCTYPE svg PUBLIC "-//W3C//DTD SVG 20010904//EN"
 "http://www.w3.org/TR/2001/REC-SVG-20010904/DTD/svg10.dtd">
<svg version="1.0" xmlns="http://www.w3.org/2000/svg"
 width="500.000000pt" height="300.000000pt" viewBox="0 0 500.000000 300.000000"
 preserveAspectRatio="xMidYMid meet">
<metadata>
Created by potrace 1.13, written by Peter Selinger 2001-2015
</metadata>
<g transform="translate(0.000000,300.000000) scale(0.100000,-0.100000)"
fill="#000000" stroke="none">
<path d="M4765 2319 c-134 -27 -256 -50 -290 -54 -16 -2 -75 -8 -130 -14 -55
-7 -143 -12 -195 -13 -93 -1 -94 -1 -49 -12 55 -14 116 -49 186 -106 86 -70
164 -250 148 -339 -10 -54 -74 -171 -98 -180 -12 -5 -44 -11 -70 -14 l-49 -7
24 38 c20 32 23 50 23 132 0 91 -2 99 -42 183 -28 59 -60 107 -99 147 -51 53
-61 60 -96 60 l-39 0 20 -25 c11 -14 23 -40 26 -57 4 -17 34 -77 68 -132 89
-150 102 -186 67 -186 -16 0 -20 -7 -20 -34 0 -40 -21 -64 -39 -43 -6 8 -8 17
-4 20 3 4 -2 9 -11 13 -9 3 -16 15 -16 26 0 10 -5 16 -10 13 -7 -4 -10 6 -8
25 1 17 6 34 11 37 4 3 1 16 -8 29 -8 13 -13 24 -10 24 3 0 -5 10 -17 23 -14
13 -35 22 -53 22 -20 0 -33 7 -40 22 -7 13 -15 20 -18 16 -9 -9 -9 -43 1 -43
9 0 34 -52 27 -58 -6 -7 -105 18 -157 39 -57 23 -151 85 -201 133 -20 20 -44
36 -52 36 -8 0 -15 5 -15 10 0 6 -6 10 -14 10 -8 0 -18 10 -21 21 -6 18 -9 19
-20 8 -20 -20 7 -114 42 -152 16 -16 87 -69 158 -117 120 -81 245 -193 245
-220 0 -6 -4 -9 -9 -5 -5 3 -13 0 -17 -6 -4 -8 -9 -8 -13 -1 -4 7 -12 8 -21 2
-10 -7 -11 -10 -2 -10 6 0 12 -5 12 -11 0 -5 -5 -7 -11 -4 -6 4 -17 -1 -24
-11 -14 -18 -14 -18 -15 0 0 17 -4 16 -31 -10 -22 -20 -28 -23 -21 -9 12 23
57 66 87 84 18 11 18 11 -5 5 -14 -3 -38 -18 -53 -33 l-29 -26 7 27 c7 29 -9
68 -28 68 -7 0 -6 -4 3 -10 8 -5 12 -10 8 -11 -11 -2 -26 -6 -35 -9 -5 -1 -11
-2 -15 -1 -5 0 -8 -9 -8 -20 0 -16 -5 -20 -20 -16 -11 3 -20 1 -20 -5 0 -5 -4
-7 -9 -3 -5 3 -12 1 -15 -4 -10 -15 -81 26 -115 66 -49 59 -51 62 -50 70 7 29
-37 81 -83 100 -21 8 -38 19 -38 24 0 5 -7 9 -15 9 -8 0 -15 -4 -15 -9 0 -5
-10 -11 -22 -13 -15 -2 -23 -10 -24 -23 -3 -55 -5 -65 -11 -64 -5 1 -15 1 -23
0 -13 -1 -13 -2 0 -11 10 -6 11 -10 3 -10 -7 0 -13 -8 -13 -19 0 -27 -53 -34
-69 -9 -6 10 -20 18 -31 18 -11 0 -20 5 -20 11 0 5 -4 7 -10 4 -5 -3 -10 -2
-10 4 0 7 -8 7 -22 2 -15 -6 -33 -4 -52 6 l-28 15 16 -23 c31 -44 17 -86 -70
-222 -24 -37 -44 -71 -44 -75 0 -4 -10 -18 -21 -32 -17 -21 -19 -22 -10 -3 17
35 14 73 -6 73 -40 -1 -64 -40 -52 -85 3 -14 -14 -54 -50 -110 -43 -68 -41
-78 12 -70 23 4 59 14 81 23 36 14 38 17 33 52 -7 51 13 90 66 134 30 24 53
56 71 96 25 56 29 60 60 60 18 0 44 -8 57 -19 13 -10 56 -40 94 -66 85 -58
116 -85 109 -97 -3 -5 0 -7 6 -6 6 2 27 -16 47 -39 20 -24 31 -43 26 -43 -6 0
-21 15 -34 34 -18 26 -27 32 -36 24 -9 -7 -13 -7 -13 0 0 6 -16 16 -35 22 -19
6 -35 16 -35 21 0 6 -4 7 -10 4 -5 -3 -10 -1 -10 5 0 6 -11 16 -25 22 -14 6
-25 17 -25 25 0 7 -4 13 -10 13 -5 0 -10 -13 -10 -28 0 -16 -12 -51 -26 -78
-14 -27 -27 -68 -29 -92 -2 -42 -10 -61 -21 -49 -13 13 -5 87 11 100 6 5 -1 5
-15 2 -14 -4 -29 -11 -34 -16 -6 -5 -17 -9 -26 -9 -9 0 -25 -6 -36 -14 -19
-14 -19 -15 5 -40 21 -23 22 -27 10 -55 -8 -17 -20 -31 -27 -31 -7 0 -10 -5
-6 -11 8 -14 105 -6 162 14 38 13 41 13 108 -25 38 -21 81 -38 96 -38 42 0
104 28 117 54 11 20 18 22 67 18 65 -5 104 9 142 52 26 30 30 31 115 32 l87 0
0 -28 c0 -24 4 -28 29 -28 22 0 30 -6 35 -25 4 -16 22 -33 54 -50 26 -13 65
-38 87 -54 38 -29 45 -30 155 -33 l115 -2 217 67 c143 44 230 67 255 65 21 -2
71 1 111 6 l72 9 0 578 0 579 -72 -1 c-40 -1 -113 -10 -163 -20z m-1423 -602
c24 -23 83 -69 131 -101 105 -71 187 -145 187 -170 0 -17 -1 -17 -26 -1 -18
11 -29 13 -38 6 -8 -7 -15 -4 -24 10 -7 11 -17 17 -22 14 -6 -3 -10 -1 -10 4
0 6 -15 11 -32 11 -26 0 -30 3 -18 11 12 9 11 9 -5 4 -11 -4 -28 -7 -38 -7 -9
0 -15 -3 -12 -9 4 -5 2 -9 -4 -9 -5 0 -12 4 -16 10 -3 5 -12 7 -20 3 -44 -16
-115 54 -81 81 7 6 16 23 20 38 3 15 13 34 22 43 13 12 14 19 5 28 -6 6 -11 7
-11 2 0 -6 -14 -10 -32 -10 -24 0 -32 5 -34 22 -3 16 2 22 18 25 21 3 21 4 4
21 -10 9 -15 17 -12 17 3 0 25 -19 48 -43z"/>
<path d="M2235 2133 c-97 -323 -123 -383 -193 -455 -32 -34 -43 -51 -36 -58 8
-8 15 -6 24 5 7 8 18 15 26 15 13 0 19 9 63 93 21 39 30 47 53 47 31 0 44 -18
46 -66 2 -26 -4 -36 -38 -58 -22 -14 -40 -32 -40 -40 0 -7 -9 -21 -20 -31 -11
-10 -20 -21 -20 -24 0 -4 30 -14 68 -24 87 -22 142 -11 142 30 0 15 -8 35 -17
46 -12 13 -18 36 -18 71 0 39 -7 61 -29 94 -39 57 -36 95 10 167 33 52 36 63
33 119 -1 33 -2 98 -2 144 0 45 -1 82 -2 82 -1 0 -24 -71 -50 -157z"/>
<path d="M2 2059 l0 -81 42 6 c61 9 99 16 108 22 4 3 8 1 8 -3 0 -5 24 -9 53
-10 76 -2 136 -19 218 -63 17 -9 58 -3 60 9 0 3 3 15 5 26 17 71 17 71 -44 84
-31 7 -136 30 -234 52 -97 21 -185 39 -197 39 -18 0 -20 -6 -19 -81z"/>
<path d="M2764 1838 c9 -12 16 -35 16 -51 0 -34 -58 -121 -131 -197 -50 -51
-54 -53 -59 -32 -4 21 -7 22 -24 9 -15 -11 -20 -28 -22 -73 -2 -49 -6 -62 -28
-79 -14 -11 -26 -26 -26 -32 0 -6 -12 -21 -27 -32 -14 -12 -24 -24 -21 -26 6
-6 106 14 129 26 9 4 19 25 22 46 9 50 70 153 133 222 28 31 59 71 70 89 10
18 34 43 52 54 36 22 37 26 5 31 -11 1 -37 17 -57 35 -43 38 -53 41 -32 10z"/>
<path d="M1278 1585 c-2 -2 -42 -6 -88 -9 -47 -3 -92 -6 -100 -8 -8 -1 -55 1
-104 5 -84 7 -95 6 -184 -24 l-94 -31 6 -34 c4 -18 28 -104 53 -191 94 -320
127 -495 122 -652 l-2 -74 77 -71 c58 -54 77 -77 76 -97 0 -27 -33 -69 -54
-69 -8 0 -19 -6 -25 -14 -7 -8 -21 -12 -31 -9 -11 3 -41 0 -66 -6 -51 -13 -84
-7 -84 14 0 9 -6 12 -16 8 -14 -5 -15 -1 -9 25 9 44 -10 96 -47 127 -28 24
-37 26 -117 23 l-86 -3 -6 -30 c-4 -16 -7 -27 -8 -24 0 3 -19 54 -41 113 -23
58 -38 112 -34 118 4 6 13 -1 22 -18 25 -50 40 -61 86 -62 l44 -2 -24 49 c-30
63 -94 131 -123 131 -24 0 -54 58 -67 127 -3 21 -14 52 -24 68 -9 17 -30 60
-45 98 -15 37 -34 68 -42 68 -45 4 -46 9 -23 62 l20 45 -37 101 c-21 56 -42
101 -48 100 -12 0 -86 -92 -127 -155 l-28 -45 2 -607 3 -607 44 64 c56 82 73
101 83 95 4 -3 5 1 2 9 -3 8 -1 18 5 22 6 3 11 -1 11 -9 0 -9 8 -16 19 -16 11
0 23 -5 26 -10 4 -6 10 -8 14 -5 5 2 13 -7 20 -21 9 -21 14 -24 25 -15 16 13
32 -2 21 -19 -4 -6 -3 -10 2 -9 40 7 42 -13 8 -64 -19 -27 -22 -39 -13 -42 24
-9 1203 0 1208 9 3 5 -4 14 -15 20 -33 19 -53 47 -101 141 -42 82 -45 95 -40
140 11 89 41 209 59 235 25 36 19 143 -15 284 -12 46 -11 49 11 67 41 33 146
19 209 -27 53 -41 97 -54 176 -54 83 0 170 -26 201 -60 10 -11 21 -37 24 -57
5 -29 13 -41 36 -52 17 -8 49 -31 72 -52 24 -22 49 -39 57 -39 14 0 105 -44
186 -90 37 -22 76 -25 100 -10 13 8 13 13 0 37 -13 22 -23 28 -50 28 -19 0
-37 3 -40 6 -8 11 -83 43 -115 49 -28 5 -29 7 -28 55 1 28 9 70 18 94 22 62
29 140 17 181 -33 111 -44 127 -122 178 -64 41 -80 58 -108 109 -43 81 -97
128 -169 148 -89 25 -91 26 -210 139 l-112 107 -120 -2 c-66 0 -121 -3 -123
-4z"/>
<path d="M482 924 c8 -54 34 -97 94 -160 32 -33 123 -82 169 -90 22 -3 48 -13
57 -21 27 -24 38 -6 35 55 -3 60 -33 124 -48 101 -5 -8 -8 -4 -11 12 -2 14
-14 29 -30 37 -16 7 -28 17 -28 23 0 5 -7 9 -15 9 -9 0 -18 7 -21 15 -4 8 -11
15 -18 15 -6 0 -19 9 -29 20 -11 13 -29 20 -52 20 -19 0 -35 5 -35 10 0 6 -17
10 -38 10 l-39 0 9 -56z"/>
</g>
</svg>
